<?xml version="1.0" encoding="UTF-8" standalone="no"?>
<svg
   xmlns:dc="http://purl.org/dc/elements/1.1/"
   xmlns:cc="http://creativecommons.org/ns#"
   xmlns:rdf="http://www.w3.org/1999/02/22-rdf-syntax-ns#"
   xmlns:svg="http://www.w3.org/2000/svg"
   xmlns="http://www.w3.org/2000/svg"
   xmlns:sodipodi="http://sodipodi.sourceforge.net/DTD/sodipodi-0.dtd"
   xmlns:inkscape="http://www.inkscape.org/namespaces/inkscape"
   viewBox="0 0 55 55"
   version="1.1"
   id="svg14"
   sodipodi:docname="angel.svg"
   width="55"
   height="55"
   inkscape:version="0.92.4 (5da689c313, 2019-01-14)">
  <metadata
     id="metadata20">
    <rdf:RDF>
      <cc:Work
         rdf:about="">
        <dc:format>image/svg+xml</dc:format>
        <dc:type
           rdf:resource="http://purl.org/dc/dcmitype/StillImage" />
        <dc:title></dc:title>
      </cc:Work>
    </rdf:RDF>
  </metadata>
  <defs
     id="defs18" />
  <sodipodi:namedview
     pagecolor="#ffffff"
     bordercolor="#666666"
     borderopacity="1"
     objecttolerance="10"
     gridtolerance="10"
     guidetolerance="10"
     inkscape:pageopacity="0"
     inkscape:pageshadow="2"
     inkscape:window-width="1366"
     inkscape:window-height="740"
     id="namedview16"
     showgrid="false"
     fit-margin-top="0"
     fit-margin-left="0"
     fit-margin-right="0"
     fit-margin-bottom="0"
     inkscape:zoom="6.5555556"
     inkscape:cx="18"
     inkscape:cy="18"
     inkscape:window-x="0"
     inkscape:window-y="0"
     inkscape:window-maximized="1"
     inkscape:current-layer="svg14" />
  <circle
     cx="27.5"
     cy="27.5"
     id="circle2"
     style="fill:#ffcc4d;stroke-width:1"
     r="27.5" />
  <path
     d="m 41.761806,34.572084 c -0.271944,-0.245972 -0.678333,-0.26125 -0.970139,-0.04431 -0.05958,0.04431 -5.991944,4.430556 -13.291667,4.430556 -7.281389,0 -13.233611,-4.38625 -13.291666,-4.430556 -0.291806,-0.216944 -0.698195,-0.198611 -0.970139,0.04431 -0.270417,0.244444 -0.331528,0.647778 -0.143611,0.959444 0.197083,0.328473 4.914861,8.010139 14.405416,8.010139 9.490556,0 14.209862,-7.681666 14.405417,-8.010139 0.187917,-0.313194 0.128335,-0.715 -0.143611,-0.959444 z m -2.039583,-5.544306 c -0.640139,0 -1.235972,-0.404861 -1.448334,-1.045 -0.310138,-0.915139 -1.556805,-3.538333 -3.134999,-3.538333 -1.622501,0 -2.885972,2.79125 -3.135001,3.538333 -0.267361,0.799028 -1.124443,1.234445 -1.932639,0.965556 -0.799027,-0.265834 -1.232916,-1.130556 -0.965555,-1.932639 0.1925,-0.574445 1.992222,-5.626806 6.033195,-5.626806 4.040972,0 5.840695,5.052361 6.031666,5.628334 0.267362,0.800555 -0.165,1.666805 -0.965555,1.932639 -0.160417,0.05194 -0.323888,0.07792 -0.482778,0.07792 z m -15.277778,0 c -0.640139,0 -1.235972,-0.404861 -1.449861,-1.045 -0.310139,-0.915139 -1.55375,-3.538333 -3.133473,-3.538333 -1.6225,0 -2.884444,2.79125 -3.133472,3.538333 -0.267361,0.799028 -1.1275,1.234445 -1.932639,0.965556 -0.800555,-0.265834 -1.232916,-1.130556 -0.965555,-1.932639 0.190972,-0.574445 1.990694,-5.626806 6.031666,-5.626806 4.040973,0 5.840695,5.052361 6.033195,5.628334 0.267361,0.800555 -0.164999,1.666805 -0.965556,1.932639 -0.161944,0.05194 -0.325416,0.07792 -0.484305,0.07792 z"
     id="path4"
     inkscape:connector-curvature="0"
     style="fill:#664500;stroke-width:1" />
  <path
     d="m 50.684029,12.705 c 0,0 -13.814166,0.245972 -23.184028,0.245972 -5.965973,0 -23.2313898,-0.180277 -23.2313898,-0.180277 L 3.4726389,14.109028 C 8.1216667,16.944584 17.320417,18.565556 27.5,18.565556 c 10.077223,0 19.213335,-1.588889 23.912779,-4.369445 l 0.119167,-0.0718 c 0,0 -0.57139,-1.014444 -0.847917,-1.419306 z"
     id="path6"
     inkscape:connector-curvature="0"
     style="fill:#ffac33;stroke-width:1" />
  <path
     d="M 36.325973,0.527083 C 34.474306,0.383472 32.547778,0.284167 30.561667,0.236806 29.551806,0.212356 28.532778,0.197086 27.5,0.197086 c -1.026666,0 -2.041111,0.01528 -3.044861,0.0382 -1.989166,0.04736 -3.917222,0.146666 -5.770417,0.290278 C 8.1583337,1.344452 0.25819445,3.744591 0.25819445,8.077369 c 0,5.481667 12.62555555,8.816806 27.24180555,8.816806 14.616251,0 27.241806,-3.335139 27.241806,-8.816806 0,-4.33125 -7.895555,-6.729861 -18.415833,-7.550278 z M 27.5,11.279584 c -10.482083,0 -19.7236113,-1.272639 -19.7236113,-4.180001 0,-0.818888 0.7547224,-1.562916 2.0456948,-2.21375 C 11.583611,3.998195 14.371806,3.290833 17.749722,2.824861 20.669306,2.424583 24.010556,2.198472 27.5,2.198472 c 3.500139,0 6.852084,0.226111 9.777779,0.630972 3.425277,0.473612 6.2425,1.196251 7.993333,2.103751 1.232917,0.638611 1.9525,1.365833 1.9525,2.166388 0,2.907362 -9.241528,4.18 -19.723612,4.180001 z"
     id="path8"
     inkscape:connector-curvature="0"
     style="fill:#5dadec;stroke-width:1" />
  <path
     d="m 37.277779,2.830972 c 3.425277,0.473611 6.2425,1.19625 7.993333,2.10375 l 0.09472,0.02597 C 41.874863,2.403191 38.383889,1.04958 36.325973,0.52708 34.474306,0.383469 32.547778,0.284164 30.561667,0.236803 l 0.0275,0.01069 z M 9.8220835,4.887361 C 11.583611,3.999722 14.371806,3.292361 17.749722,2.826389 L 24.42,0.2475 24.45514,0.23528 c -1.989165,0.04736 -3.917221,0.146666 -5.770417,0.290278 -2.057916,0.5225 -5.550416,1.874583 -9.0429156,4.433611 z"
     id="path10"
     inkscape:connector-curvature="0"
     style="fill:#3b94d9;stroke-width:1" />
  <path
     d="M 43.49889,5.15625 C 42.490556,4.479445 41.442501,3.765972 40.441806,3.23125 36.585696,1.16875 32.179584,0 27.5,0 23.025139,0 18.799306,1.069444 15.063889,2.965417 c -1.66375,0.844861 -2.87375,1.52625 -3.315278,2.190833 z"
     id="path12"
     inkscape:connector-curvature="0"
     style="fill:#ffcc4d;stroke-width:1" />
</svg>
