<?xml version="1.0" encoding="UTF-8" standalone="no"?>
<svg
   xmlns:dc="http://purl.org/dc/elements/1.1/"
   xmlns:cc="http://creativecommons.org/ns#"
   xmlns:rdf="http://www.w3.org/1999/02/22-rdf-syntax-ns#"
   xmlns:svg="http://www.w3.org/2000/svg"
   xmlns="http://www.w3.org/2000/svg"
   xmlns:sodipodi="http://sodipodi.sourceforge.net/DTD/sodipodi-0.dtd"
   xmlns:inkscape="http://www.inkscape.org/namespaces/inkscape"
   viewBox="0 0 55 55.000004"
   version="1.1"
   id="svg14"
   sodipodi:docname="1f62d.svg"
   width="55"
   height="55.000004"
   inkscape:version="0.92.4 (5da689c313, 2019-01-14)">
  <metadata
     id="metadata20">
    <rdf:RDF>
      <cc:Work
         rdf:about="">
        <dc:format>image/svg+xml</dc:format>
        <dc:type
           rdf:resource="http://purl.org/dc/dcmitype/StillImage" />
        <dc:title></dc:title>
      </cc:Work>
    </rdf:RDF>
  </metadata>
  <defs
     id="defs18" />
  <sodipodi:namedview
     pagecolor="#ffffff"
     bordercolor="#666666"
     borderopacity="1"
     objecttolerance="10"
     gridtolerance="10"
     guidetolerance="10"
     inkscape:pageopacity="0"
     inkscape:pageshadow="2"
     inkscape:window-width="1366"
     inkscape:window-height="740"
     id="namedview16"
     showgrid="false"
     inkscape:zoom="6.5555556"
     inkscape:cx="18.005757"
     inkscape:cy="25.076564"
     inkscape:window-x="0"
     inkscape:window-y="0"
     inkscape:window-maximized="1"
     inkscape:current-layer="svg14"
     fit-margin-top="0"
     fit-margin-left="0"
     fit-margin-right="0"
     fit-margin-bottom="0" />
  <path
     d="M 55.000001,27.5 C 55.000001,42.68764 42.68764,55.000001 27.5,55.000001 12.312361,55.000001 0,42.68764 0,27.5 0,12.312361 12.312361,0 27.5,0 42.68764,0 55.000001,12.312361 55.000001,27.5"
     id="path2"
     inkscape:connector-curvature="0"
     style="fill:#ffcc4d;stroke-width:1" />
  <path
     d="m 33.611112,41.250001 c 0,4.22125 -2.73625,4.583333 -6.111112,4.583333 -3.376389,0 -6.111111,-0.362083 -6.111111,-4.583333 0,-4.218195 2.734722,-9.166667 6.111111,-9.166667 3.374862,0 6.111112,4.948472 6.111112,9.166667 z M 45.833334,22.916667 c -0.189444,0 -0.381944,-0.03514 -0.566806,-0.11 -7.98875,-3.194583 -11.262778,-8.007083 -11.39875,-8.210278 -0.469028,-0.702778 -0.279583,-1.651528 0.423195,-2.119028 0.70125,-0.4675 1.645416,-0.281111 2.115972,0.418611 0.02903,0.04125 2.948611,4.254862 9.993195,7.072084 0.78375,0.314722 1.165694,1.202361 0.8525,1.986111 -0.239862,0.598889 -0.814306,0.9625 -1.419306,0.9625 z m -36.6666672,0 c -0.6065278,0 -1.1794445,-0.363611 -1.4193056,-0.960972 -0.3131944,-0.78375 0.067222,-1.672917 0.8509723,-1.986111 7.0461115,-2.817223 9.9656945,-7.030834 9.9947225,-7.072084 0.470555,-0.696666 1.419305,-0.881528 2.119028,-0.4125 0.698194,0.470556 0.887639,1.413195 0.420139,2.112917 -0.135973,0.203194 -3.410001,5.015694 -11.3972229,8.210278 -0.1863888,0.07333 -0.3788889,0.108472 -0.5683333,0.108472 z"
     id="path4"
     inkscape:connector-curvature="0"
     style="fill:#664500;stroke-width:1" />
  <path
     d="m 36.666667,24.444445 h 6.111111 v 29.027778 l -6.111111,-0.07028 z m -24.444445,29.027778 6.111112,-0.07028 v -28.9575 h -6.111112 z"
     id="path6"
     inkscape:connector-curvature="0"
     style="fill:#5dadec;stroke-width:1" />
  <path
     d="m 22.915139,27.5 c -0.229166,0 -0.462916,-0.05194 -0.681389,-0.160416 -5.365555,-2.682778 -10.801389,-0.0275 -10.854861,0 -0.75625,0.380416 -1.6729166,0.07028 -2.0502778,-0.682917 -0.3773611,-0.754722 -0.071805,-1.672917 0.6829168,-2.050278 0.278055,-0.1375 6.871944,-3.356528 13.589583,0 0.754723,0.377361 1.060278,1.295556 0.682917,2.050278 C 24.015139,27.191389 23.475834,27.5 22.915139,27.5 Z m 21.388889,0 c -0.229166,0 -0.462916,-0.05194 -0.681388,-0.160416 -5.367084,-2.682778 -10.80139,-0.0275 -10.854862,0 -0.754722,0.378889 -1.671389,0.07181 -2.050278,-0.682917 -0.377361,-0.754722 -0.07181,-1.672917 0.682917,-2.050278 0.278056,-0.1375 6.876528,-3.355 13.589584,0 0.754722,0.377361 1.060277,1.295556 0.682916,2.050278 C 45.404028,27.191389 44.864723,27.5 44.304028,27.5 Z"
     id="path8"
     inkscape:connector-curvature="0"
     style="fill:#664500;stroke-width:1" />
  <ellipse
     cx="27.5"
     cy="51.944447"
     rx="27.5"
     ry="3.0555556"
     id="ellipse10"
     style="fill:#5dadec;stroke-width:1" />
  <ellipse
     cx="27.5"
     cy="41.25"
     rx="4.5833335"
     ry="3.0555556"
     id="ellipse12"
     style="fill:#e75a70;stroke-width:1" />
</svg>
