<?xml version="1.0" encoding="UTF-8" standalone="no"?>
<svg
   xmlns:dc="http://purl.org/dc/elements/1.1/"
   xmlns:cc="http://creativecommons.org/ns#"
   xmlns:rdf="http://www.w3.org/1999/02/22-rdf-syntax-ns#"
   xmlns:svg="http://www.w3.org/2000/svg"
   xmlns="http://www.w3.org/2000/svg"
   xmlns:sodipodi="http://sodipodi.sourceforge.net/DTD/sodipodi-0.dtd"
   xmlns:inkscape="http://www.inkscape.org/namespaces/inkscape"
   viewBox="0 0 55 55.000065"
   version="1.1"
   id="svg8"
   sodipodi:docname="devil.svg"
   inkscape:version="0.92.4 (5da689c313, 2019-01-14)"
   width="55"
   height="55.000065">
  <metadata
     id="metadata14">
    <rdf:RDF>
      <cc:Work
         rdf:about="">
        <dc:format>image/svg+xml</dc:format>
        <dc:type
           rdf:resource="http://purl.org/dc/dcmitype/StillImage" />
        <dc:title></dc:title>
      </cc:Work>
    </rdf:RDF>
  </metadata>
  <defs
     id="defs12" />
  <sodipodi:namedview
     pagecolor="#ffffff"
     bordercolor="#666666"
     borderopacity="1"
     objecttolerance="10"
     gridtolerance="10"
     guidetolerance="10"
     inkscape:pageopacity="0"
     inkscape:pageshadow="2"
     inkscape:window-width="1366"
     inkscape:window-height="740"
     id="namedview10"
     showgrid="false"
     inkscape:zoom="6.5555556"
     inkscape:cx="18"
     inkscape:cy="18"
     inkscape:window-x="0"
     inkscape:window-y="0"
     inkscape:window-maximized="1"
     inkscape:current-layer="svg8"
     fit-margin-top="0"
     fit-margin-left="0"
     fit-margin-right="0"
     fit-margin-bottom="0" />
  <circle
     cx="27.5"
     cy="27.500065"
     r="27.5"
     id="circle2"
     style="fill:#aa8dd8;stroke-width:1" />
  <path
     d="m 15.277778,6.1111766 c -3.941667,0 -8.6029168,-3.7675 -10.0619446,-5.21583304 -0.8723611,-0.873889 -2.1893056,-1.135139 -3.3290278,-0.661528 C 0.74402779,0.70589856 0,1.8196486 0,3.0556216 0,8.3402046 2.5544445,18.333399 12.222222,18.333399 c 1.156528,0 2.215278,-0.653889 2.733195,-1.689722 l 3.055555,-6.111111 c 0.473612,-0.9472225 0.423195,-2.0716674 -0.134444,-2.9730554 -0.556111,-0.899862 -1.54,-1.448334 -2.59875,-1.448334 z M 53.114723,0.23381556 c -1.145833,-0.475139 -2.455139,-0.212361 -3.330556,0.663056 C 48.430556,2.2489546 43.67764,6.1111766 39.722223,6.1111766 c -1.05875,0 -2.042639,0.548472 -2.59875,1.449861 -0.556111,0.899861 -0.606528,2.0258337 -0.134445,2.9730554 l 3.055556,6.111112 c 0.517917,1.034305 1.575139,1.688194 2.733194,1.688194 9.667778,0 12.222223,-9.9931944 12.222223,-15.2777774 0,-1.235973 -0.744028,-2.34972304 -1.885278,-2.82180604 z"
     id="path4"
     inkscape:connector-curvature="0"
     style="fill:#aa8dd8;stroke-width:1" />
  <path
     d="m 41.761806,39.155483 c -0.271944,-0.245972 -0.678333,-0.26125 -0.970139,-0.04431 -0.05958,0.04431 -5.991944,4.430555 -13.291667,4.430555 -7.281389,0 -13.233611,-4.38625 -13.291666,-4.430555 -0.291806,-0.216945 -0.698195,-0.198611 -0.970139,0.04431 -0.270417,0.244445 -0.331528,0.647778 -0.143611,0.959445 0.197083,0.328472 4.914861,8.010139 14.405416,8.010139 9.490556,0 14.209862,-7.681667 14.405417,-8.010139 0.187917,-0.313195 0.128334,-0.715 -0.143611,-0.959445 z m -17.765,-11.207778 c -4.972917,-4.972917 -12.964723,-5.030972 -13.302361,-5.030972 -0.8433337,0 -1.5262504,0.682916 -1.5262504,1.524722 -0.00153,0.843333 0.6813889,1.529305 1.5247224,1.530833 0.0443,0 2.940972,0.03361 6.085139,1.125972 -0.905972,0.977778 -1.500278,2.49639 -1.500278,4.221251 0,2.954722 1.709583,5.347222 3.819444,5.347222 2.109862,0 3.819445,-2.3925 3.819445,-5.347222 0,-0.265833 -0.02903,-0.519445 -0.05653,-0.774583 0.01986,0 0.03819,0.01069 0.05653,0.01069 0.391111,0 0.782222,-0.149722 1.080139,-0.447639 0.597361,-0.597361 0.597361,-1.562917 0,-2.160278 z m 20.30875,-5.030972 c -0.337639,0 -8.327917,0.05806 -13.302361,5.030972 -0.597361,0.597361 -0.597361,1.562917 0,2.160278 0.297917,0.297917 0.689028,0.447639 1.080139,0.447639 0.01986,0 0.03667,-0.01069 0.055,-0.01069 -0.02445,0.255138 -0.055,0.50875 -0.055,0.774583 0,2.954722 1.709583,5.347222 3.819444,5.347222 2.109861,0 3.819445,-2.3925 3.819445,-5.347222 0,-1.724861 -0.594306,-3.243473 -1.500278,-4.221251 3.144167,-1.092361 6.040833,-1.125972 6.086667,-1.125972 0.841805,-0.0015 1.524722,-0.6875 1.523194,-1.530833 -0.0015,-0.84181 -0.682916,-1.524726 -1.52625,-1.524726 z"
     id="path6"
     inkscape:connector-curvature="0"
     style="fill:#553986;stroke-width:1" />
</svg>
