<?xml version="1.0" encoding="UTF-8" standalone="no"?>
<svg
   xmlns:dc="http://purl.org/dc/elements/1.1/"
   xmlns:cc="http://creativecommons.org/ns#"
   xmlns:rdf="http://www.w3.org/1999/02/22-rdf-syntax-ns#"
   xmlns:svg="http://www.w3.org/2000/svg"
   xmlns="http://www.w3.org/2000/svg"
   xmlns:sodipodi="http://sodipodi.sourceforge.net/DTD/sodipodi-0.dtd"
   xmlns:inkscape="http://www.inkscape.org/namespaces/inkscape"
   viewBox="0 0 55 55"
   version="1.1"
   id="svg10"
   sodipodi:docname="laugh.svg"
   width="55"
   height="55"
   inkscape:version="0.92.4 (5da689c313, 2019-01-14)">
  <metadata
     id="metadata16">
    <rdf:RDF>
      <cc:Work
         rdf:about="">
        <dc:format>image/svg+xml</dc:format>
        <dc:type
           rdf:resource="http://purl.org/dc/dcmitype/StillImage" />
        <dc:title></dc:title>
      </cc:Work>
    </rdf:RDF>
  </metadata>
  <defs
     id="defs14" />
  <sodipodi:namedview
     pagecolor="#ffffff"
     bordercolor="#666666"
     borderopacity="1"
     objecttolerance="10"
     gridtolerance="10"
     guidetolerance="10"
     inkscape:pageopacity="0"
     inkscape:pageshadow="2"
     inkscape:window-width="1366"
     inkscape:window-height="740"
     id="namedview12"
     showgrid="false"
     fit-margin-top="0"
     fit-margin-left="0"
     fit-margin-right="0"
     fit-margin-bottom="0"
     inkscape:zoom="6.5555556"
     inkscape:cx="-8.2372881"
     inkscape:cy="18.000001"
     inkscape:window-x="0"
     inkscape:window-y="0"
     inkscape:window-maximized="1"
     inkscape:current-layer="svg10" />
  <path
     d="M 55.000001,27.5 C 55.000001,42.68764 42.68764,55.000001 27.5,55.000001 12.313889,55.000001 0,42.68764 0,27.5 0,12.313889 12.313889,0 27.5,0 42.68764,0 55.000001,12.313889 55.000001,27.5"
     id="path2"
     inkscape:connector-curvature="0"
     style="fill:#ffcc4d;stroke-width:1" />
  <path
     d="m 43.475973,27.189861 c -0.09167,-0.20625 -2.290139,-5.037083 -6.809306,-5.037083 -4.517639,0 -6.717639,4.830833 -6.809305,5.037083 -0.140556,0.31625 -0.04889,0.685973 0.221527,0.902917 0.267361,0.216945 0.650834,0.224583 0.931945,0.02139 0.01833,-0.01375 1.928055,-1.378055 5.655833,-1.378055 3.706389,0 5.613056,1.345972 5.655834,1.376527 0.134444,0.100834 0.296389,0.15125 0.455277,0.15125 0.168056,0 0.337639,-0.05653 0.476667,-0.166527 0.270417,-0.216945 0.363611,-0.589723 0.221528,-0.907501 z m -18.333334,0 c -0.09167,-0.20625 -2.290139,-5.037083 -6.809305,-5.037083 -4.517639,0 -6.717639,4.830833 -6.809306,5.037083 -0.140556,0.31625 -0.04889,0.685973 0.22,0.902917 0.268889,0.216945 0.652361,0.224583 0.931944,0.02139 0.01986,-0.01375 1.928056,-1.378055 5.657362,-1.378055 3.706389,0 5.613055,1.345972 5.655833,1.376527 0.134444,0.100834 0.296389,0.15125 0.455278,0.15125 0.168055,0 0.337639,-0.05653 0.476666,-0.166527 0.271945,-0.216945 0.362084,-0.589723 0.221528,-0.907501 z m 22.218473,-2.745416 c -0.605,0 -1.179445,-0.363611 -1.419306,-0.960972 -2.716389,-6.790973 -9.507361,-8.220973 -9.576111,-8.236251 -0.826528,-0.165 -1.364306,-0.970138 -1.197778,-1.798194 0.165,-0.828056 0.970139,-1.36125 1.798195,-1.197778 0.345277,0.06875 8.488333,1.784445 11.812778,10.095556 0.313194,0.78375 -0.06875,1.672917 -0.8525,1.986111 -0.183334,0.07639 -0.375834,0.111528 -0.565278,0.111528 z m -39.722223,0 c -0.1894444,0 -0.3804167,-0.03514 -0.5668056,-0.11 C 6.2883334,24.02125 5.9079168,23.132084 6.2211112,22.348334 9.5455557,14.037222 17.688611,12.321528 18.033889,12.252778 c 0.829583,-0.161944 1.631667,0.37125 1.798195,1.197778 0.165,0.825 -0.369723,1.628611 -1.193195,1.796666 -0.282639,0.05806 -6.884167,1.497223 -9.5806944,8.236251 C 8.8183335,24.080834 8.243889,24.444445 7.638889,24.444445 Z M 27.5,33.611112 c -5.535139,0 -9.207916,-0.644723 -13.75,-1.527778 -1.037361,-0.200139 -3.055555,0 -3.055555,3.055555 0,6.111112 7.020139,13.750001 16.805555,13.750001 9.783889,0 16.805556,-7.638889 16.805556,-13.750001 0,-3.055555 -2.018194,-3.257222 -3.055555,-3.055555 C 36.707917,32.966389 33.035139,33.611112 27.5,33.611112 Z"
     id="path4"
     inkscape:connector-curvature="0"
     style="fill:#664500;stroke-width:1" />
  <path
     d="m 13.75,35.138889 c 0,0 4.583334,1.527778 13.75,1.527778 9.166667,0 13.750001,-1.527778 13.750001,-1.527778 0,0 -3.055556,6.111112 -13.750001,6.111112 -10.694444,0 -13.75,-6.111112 -13.75,-6.111112 z"
     id="path6"
     inkscape:connector-curvature="0"
     style="fill:#ffffff;stroke-width:1" />
  <path
     d="M 16.571806,43.12764 C 15.532917,47.217501 11.377361,49.689445 7.2875001,48.650556 3.1991667,47.613195 0.72569445,43.45764 1.7630556,39.367778 2.8004167,35.277917 11.444583,26.063889 12.926528,26.439723 c 1.481944,0.377361 4.682639,12.599583 3.645278,16.687917 z m 21.825833,0 c 1.038889,4.089861 5.194445,6.561805 9.284306,5.522916 4.089861,-1.037361 6.563334,-5.192916 5.524445,-9.282778 -1.038889,-4.089861 -9.683056,-13.303889 -11.165,-12.928055 -1.478889,0.377361 -4.681112,12.599583 -3.643751,16.687917 z"
     id="path8"
     inkscape:connector-curvature="0"
     style="fill:#5dadec;stroke-width:1" />
</svg>
