<?xml version="1.0" encoding="UTF-8" standalone="no"?>
<svg
   xmlns:dc="http://purl.org/dc/elements/1.1/"
   xmlns:cc="http://creativecommons.org/ns#"
   xmlns:rdf="http://www.w3.org/1999/02/22-rdf-syntax-ns#"
   xmlns:svg="http://www.w3.org/2000/svg"
   xmlns="http://www.w3.org/2000/svg"
   xmlns:sodipodi="http://sodipodi.sourceforge.net/DTD/sodipodi-0.dtd"
   xmlns:inkscape="http://www.inkscape.org/namespaces/inkscape"
   viewBox="0 0 55 55"
   version="1.1"
   id="svg16"
   sodipodi:docname="poop.svg"
   width="55"
   height="55"
   inkscape:version="0.92.4 (5da689c313, 2019-01-14)">
  <metadata
     id="metadata22">
    <rdf:RDF>
      <cc:Work
         rdf:about="">
        <dc:format>image/svg+xml</dc:format>
        <dc:type
           rdf:resource="http://purl.org/dc/dcmitype/StillImage" />
        <dc:title></dc:title>
      </cc:Work>
    </rdf:RDF>
  </metadata>
  <defs
     id="defs20" />
  <sodipodi:namedview
     pagecolor="#ffffff"
     bordercolor="#666666"
     borderopacity="1"
     objecttolerance="10"
     gridtolerance="10"
     guidetolerance="10"
     inkscape:pageopacity="0"
     inkscape:pageshadow="2"
     inkscape:window-width="1366"
     inkscape:window-height="740"
     id="namedview18"
     showgrid="false"
     fit-margin-top="0"
     fit-margin-left="0"
     fit-margin-right="0"
     fit-margin-bottom="0"
     inkscape:zoom="2.3177389"
     inkscape:cx="-161.70491"
     inkscape:cy="-11.51541"
     inkscape:window-x="0"
     inkscape:window-y="0"
     inkscape:window-maximized="1"
     inkscape:current-layer="svg16" />
  <path
     d="m 51.243195,35.440846 c 0.556112,-2.410901 0.371249,-4.989861 -0.699722,-7.556599 -1.035835,-2.482708 -2.821806,-4.445957 -4.997362,-5.764466 0.485834,-1.821162 0.3575,-3.781354 -0.495,-5.729326 -1.284862,-2.933415 -4.063889,-4.890552 -7.198889,-5.442095 0.380417,-0.873913 0.502639,-1.969361 0.055,-3.310787 C 36.379444,3.054113 30.268333,6.109754 25.685,0 21.957221,2.236728 21.147499,5.561266 21.288055,8.383149 17.589305,9.012611 15.482499,9.81319 15.482499,9.81319 v 0.0031 C 13.404722,10.656583 11.935,12.693168 11.935,15.07504 c 0,1.342953 0.485833,2.560626 1.264999,3.53232 l -1.057222,0.394178 0.0015,0.0046 c -3.5597231,1.330732 -6.0729175,4.546794 -6.0729175,8.309814 0,1.599628 0.4583334,3.096892 1.2527782,4.397066 C 3.01125,33.651768 0,37.859385 0,42.777438 0,49.527348 5.6390278,55 12.595,55 17.589306,55 22.615695,53.925942 27.15625,52.45618 30.583056,54.045111 35.856945,55 43.796806,55 49.984306,55 55,49.984166 55,43.796494 55,40.471957 53.544028,37.494235 51.243195,35.440846 Z"
     id="path2"
     inkscape:connector-curvature="0"
     style="fill:#bf6952;stroke-width:0.99999994" />
  <ellipse
     cx="20.625"
     cy="26.504448"
     rx="5.3472219"
     ry="6.2551517"
     id="ellipse4"
     style="fill:#f5f8fa;stroke-width:0.99999994" />
  <ellipse
     cx="35.902775"
     cy="26.504448"
     rx="5.3472219"
     ry="6.2551517"
     id="ellipse6"
     style="fill:#f5f8fa;stroke-width:0.99999994" />
  <ellipse
     cx="21.388887"
     cy="26.504448"
     rx="3.0555556"
     ry="3.4750843"
     id="ellipse8"
     style="fill:#292f33;stroke-width:0.99999994" />
  <ellipse
     cx="35.138889"
     cy="26.504448"
     rx="3.0555556"
     ry="3.4750843"
     id="ellipse10"
     style="fill:#292f33;stroke-width:0.99999994" />
  <path
     d="m 14.432917,39.563814 c -0.375833,-0.685287 0.0046,-1.24408 0.84486,-1.24408 h 27.500001 c 0.840278,0 1.220694,0.558793 0.844861,1.24408 0,0 -3.900417,7.096122 -14.594861,7.096122 -10.694444,0 -14.594861,-7.096122 -14.594861,-7.096122 z"
     id="path12"
     inkscape:connector-curvature="0"
     style="fill:#292f33;stroke-width:0.99999994" />
  <path
     d="m 29.027778,41.099801 c -4.233472,0 -7.87875,1.281612 -9.612778,3.135917 2.279445,1.327481 5.415972,2.424218 9.612778,2.424218 4.196805,0 7.334861,-1.096737 9.612778,-2.424218 -1.734028,-1.854305 -5.379306,-3.135917 -9.612778,-3.135917 z"
     id="path14"
     inkscape:connector-curvature="0"
     style="fill:#f2abba;stroke-width:0.99999994" />
</svg>
