<?xml version="1.0" encoding="UTF-8" standalone="no"?>
<svg
   xmlns:dc="http://purl.org/dc/elements/1.1/"
   xmlns:cc="http://creativecommons.org/ns#"
   xmlns:rdf="http://www.w3.org/1999/02/22-rdf-syntax-ns#"
   xmlns:svg="http://www.w3.org/2000/svg"
   xmlns="http://www.w3.org/2000/svg"
   xmlns:sodipodi="http://sodipodi.sourceforge.net/DTD/sodipodi-0.dtd"
   xmlns:inkscape="http://www.inkscape.org/namespaces/inkscape"
   viewBox="0 0 55 54.915508"
   version="1.1"
   id="svg10"
   sodipodi:docname="smile.svg"
   width="55"
   height="54.915508"
   inkscape:version="0.92.4 (5da689c313, 2019-01-14)">
  <metadata
     id="metadata16">
    <rdf:RDF>
      <cc:Work
         rdf:about="">
        <dc:format>image/svg+xml</dc:format>
        <dc:type
           rdf:resource="http://purl.org/dc/dcmitype/StillImage" />
        <dc:title></dc:title>
      </cc:Work>
    </rdf:RDF>
  </metadata>
  <defs
     id="defs14" />
  <sodipodi:namedview
     pagecolor="#ffffff"
     bordercolor="#666666"
     borderopacity="1"
     objecttolerance="10"
     gridtolerance="10"
     guidetolerance="10"
     inkscape:pageopacity="0"
     inkscape:pageshadow="2"
     inkscape:window-width="1366"
     inkscape:window-height="740"
     id="namedview12"
     showgrid="false"
     fit-margin-top="0"
     fit-margin-left="0"
     fit-margin-right="0"
     fit-margin-bottom="0"
     inkscape:zoom="6.5555556"
     inkscape:cx="-8.237288"
     inkscape:cy="17.999999"
     inkscape:window-x="0"
     inkscape:window-y="0"
     inkscape:window-maximized="1"
     inkscape:current-layer="svg10" />
  <ellipse
     cx="27.5"
     cy="27.457754"
     id="circle2"
     style="fill:#ffcc4d;stroke-width:0.99999994"
     rx="27.5"
     ry="27.457754" />
  <path
     d="m 10.692916,25.932324 c -0.229167,0 -0.462917,-0.05186 -0.681389,-0.160169 -0.754722,-0.376782 -1.0602779,-1.293566 -0.6829162,-2.047128 0.079442,-0.160171 2.0136112,-3.894426 7.4769442,-3.894426 5.464861,0 7.3975,3.735781 7.476944,3.894426 0.377361,0.753562 0.07028,1.670346 -0.682917,2.047128 -0.750138,0.376781 -1.657638,0.07474 -2.041111,-0.665088 -0.06722,-0.12356 -1.269583,-2.225604 -4.752916,-2.225604 -3.539861,0 -4.734583,2.185942 -4.745278,2.207298 -0.267361,0.535427 -0.806666,0.843563 -1.367361,0.843563 z m 33.612638,0 c 0.229167,0 0.462917,-0.05186 0.681388,-0.160169 0.754724,-0.376782 1.060279,-1.293566 0.682918,-2.047128 -0.07944,-0.160171 -2.013612,-3.894426 -7.476945,-3.894426 -5.464861,0 -7.3975,3.735781 -7.476944,3.894426 -0.377361,0.753562 -0.07027,1.670346 0.682917,2.047128 0.750138,0.376781 1.657639,0.07474 2.041111,-0.665088 0.06722,-0.12356 1.269584,-2.225604 4.752916,-2.225604 3.539862,0 4.734583,2.185942 4.745278,2.207298 0.267361,0.535427 0.806666,0.843563 1.367361,0.843563 z m 0.768473,9.94581 c 0.493471,-1.142548 0.704304,-1.917467 0.711944,-1.947976 0.204722,-0.814579 -0.290278,-1.639838 -1.107639,-1.845771 -0.818889,-0.207458 -1.645416,0.286782 -1.85625,1.102887 -0.113055,0.450002 -2.976111,11.050221 -15.322083,11.050221 -12.345972,0 -15.209027,-10.600219 -15.323611,-11.051747 -0.210833,-0.814579 -1.037361,-1.308819 -1.85625,-1.102886 -0.8158331,0.205934 -1.310833,1.031191 -1.1076389,1.845771 0.033608,0.134238 3.5154169,13.359724 18.2874999,13.359724 2.520834,0 4.690277,-0.405765 6.592361,-1.044921 6.615278,-2.224078 9.738056,-7.489865 10.981667,-10.365302 z"
     id="path4"
     inkscape:connector-curvature="0"
     style="fill:#664500;stroke-width:0.99999994" />
  <path
     d="m 49.510693,40.700021 -4.516111,-4.65409 c 0,0 -1.038889,-0.668139 -1.944861,0.866445 -1.191667,2.01662 -3.170139,4.477139 -6.010278,6.362572 -1.193194,0.791698 -3.267916,1.813737 -4.120416,2.010518 -1.122917,0.257798 -0.592778,1.470515 -0.592778,1.470515 0.89375,-0.19373 1.605694,-0.459155 1.605694,-0.459155 l 0.452222,0.451528 4.164723,4.158324 c 2.64,2.635945 7.638888,3.050863 10.694444,0 3.055555,-3.050861 2.908889,-7.569187 0.267361,-10.206657 z"
     id="path6"
     inkscape:connector-curvature="0"
     style="fill:#e75b70;stroke-width:0.99999994" />
  <path
     d="m 45.703471,47.401239 c 0.325416,-0.324918 0.325416,-0.851191 0,-1.176108 l -5.544306,-5.535788 -1.216111,1.141022 5.580973,5.572399 c 0.325415,0.323391 0.854027,0.323391 1.179444,-0.0015 z"
     id="path8"
     inkscape:connector-curvature="0"
     style="fill:#de3146;stroke-width:0.99999994" />
</svg>
