<?xml version="1.0" encoding="UTF-8" standalone="no"?>
<svg
   xmlns:dc="http://purl.org/dc/elements/1.1/"
   xmlns:cc="http://creativecommons.org/ns#"
   xmlns:rdf="http://www.w3.org/1999/02/22-rdf-syntax-ns#"
   xmlns:svg="http://www.w3.org/2000/svg"
   xmlns="http://www.w3.org/2000/svg"
   xmlns:sodipodi="http://sodipodi.sourceforge.net/DTD/sodipodi-0.dtd"
   xmlns:inkscape="http://www.inkscape.org/namespaces/inkscape"
   viewBox="0 0 55 55"
   version="1.1"
   id="svg20"
   sodipodi:docname="toilet.svg"
   width="55"
   height="55"
   inkscape:version="0.92.4 (5da689c313, 2019-01-14)">
  <metadata
     id="metadata26">
    <rdf:RDF>
      <cc:Work
         rdf:about="">
        <dc:format>image/svg+xml</dc:format>
        <dc:type
           rdf:resource="http://purl.org/dc/dcmitype/StillImage" />
        <dc:title></dc:title>
      </cc:Work>
    </rdf:RDF>
  </metadata>
  <defs
     id="defs24" />
  <sodipodi:namedview
     pagecolor="#ffffff"
     bordercolor="#666666"
     borderopacity="1"
     objecttolerance="10"
     gridtolerance="10"
     guidetolerance="10"
     inkscape:pageopacity="0"
     inkscape:pageshadow="2"
     inkscape:window-width="1366"
     inkscape:window-height="740"
     id="namedview22"
     showgrid="false"
     fit-margin-top="0"
     fit-margin-left="0"
     fit-margin-right="0"
     fit-margin-bottom="0"
     inkscape:zoom="6.5555556"
     inkscape:cx="-8.237288"
     inkscape:cy="18.000009"
     inkscape:window-x="0"
     inkscape:window-y="0"
     inkscape:window-maximized="1"
     inkscape:current-layer="svg20" />
  <path
     d="M 10.694444,2.779541e-7 H 36.666666 V 36.666666 H 10.694444 Z"
     id="path2"
     inkscape:connector-curvature="0"
     style="fill:#e1e8ed;stroke-width:1.00000012" />
  <path
     d="M 10.694444,18.333333 H 36.666666 V 36.666666 H 10.694444 Z"
     id="path4"
     inkscape:connector-curvature="0"
     style="fill:#99aab5;stroke-width:1.00000012" />
  <ellipse
     cx="10.694444"
     cy="18.333334"
     rx="10.694444"
     ry="18.333334"
     id="ellipse6"
     style="fill:#ccd6dd;stroke-width:1.00000012" />
  <ellipse
     cx="36.666668"
     cy="18.333334"
     rx="12.222221"
     ry="18.333334"
     id="ellipse8"
     style="fill:#e1e8ed;stroke-width:1.00000012" />
  <path
     d="M 48.888888,18.333333 V 36.666666 C 48.888888,50.416667 55,55.000001 55,55.000001 H 27.5 c 0,0 -6.111112,-4.583334 -6.111112,-18.333335 v -19.86111 z"
     id="path10"
     inkscape:connector-curvature="0"
     style="fill:#e1e8ed;stroke-width:1.00000012" />
  <path
     d="m 48.888888,18.333333 c 0,-7.522777 -3.023471,-13.9791657 -7.344028,-16.8055537 H 17.2975 c 3.402361,3.489444 5.619167,9.6494437 5.619167,16.8055537 v 21.38889 c 0.655415,8.682361 4.099028,12.680555 5.168472,13.749999 H 53.548611 C 51.74125,51.174444 48.888888,46.064028 48.888888,36.666666 Z"
     id="path12"
     inkscape:connector-curvature="0"
     style="fill:#f5f8fa;stroke-width:1.00000012" />
  <ellipse
     cx="9.166667"
     cy="18.333334"
     rx="4.5833335"
     ry="7.6388888"
     id="ellipse14"
     style="fill:#99aab5;stroke-width:1.00000012" />
  <path
     d="m 4.9652777,15.293056 c 0.7058334,-2.704167 2.3191667,-4.598611 4.2013892,-4.598611 2.5315271,0 4.5833331,3.420694 4.5833331,7.638888 0,0.941111 -0.116111,1.833334 -0.3025,2.665973 -0.991528,-3.19 -4.3862507,-5.564167 -8.4822223,-5.70625 z"
     id="path16"
     inkscape:connector-curvature="0"
     style="fill:#66757f;stroke-width:1.00000012" />
  <path
     d="m 25.208332,19.861112 h -2.291665 v -1.527779 h 2.291665 c 0.42014,0 0.763889,0.34375 0.763889,0.763889 0,0.42014 -0.343749,0.76389 -0.763889,0.76389 z m 6.111112,0 h -3.055555 c -0.420139,0 -0.763889,-0.34375 -0.763889,-0.76389 0,-0.420139 0.34375,-0.763889 0.763889,-0.763889 h 3.055555 c 0.42014,0 0.76389,0.34375 0.76389,0.763889 0,0.42014 -0.34375,0.76389 -0.76389,0.76389 z m 6.111111,0 H 34.375 c -0.420139,0 -0.763889,-0.34375 -0.763889,-0.76389 0,-0.420139 0.34375,-0.763889 0.763889,-0.763889 h 3.055555 c 0.420139,0 0.763889,0.34375 0.763889,0.763889 0,0.42014 -0.34375,0.76389 -0.763889,0.76389 z m 6.111112,0 H 40.48611 c -0.420138,0 -0.763888,-0.34375 -0.763888,-0.76389 0,-0.420139 0.34375,-0.763889 0.763888,-0.763889 h 3.055557 c 0.420138,0 0.763888,0.34375 0.763888,0.763889 0,0.42014 -0.34375,0.76389 -0.763888,0.76389 z m 5.347221,0 h -2.291666 c -0.420139,0 -0.763889,-0.34375 -0.763889,-0.76389 0,-0.420139 0.34375,-0.763889 0.763889,-0.763889 h 2.291666 z M 25.208332,38.194444 h -2.291665 v -1.527778 h 2.291665 c 0.42014,0 0.763889,0.34375 0.763889,0.763889 0,0.420139 -0.343749,0.763889 -0.763889,0.763889 z m 6.111112,0 h -3.055555 c -0.420139,0 -0.763889,-0.34375 -0.763889,-0.763889 0,-0.420139 0.34375,-0.763889 0.763889,-0.763889 h 3.055555 c 0.42014,0 0.76389,0.34375 0.76389,0.763889 0,0.420139 -0.34375,0.763889 -0.76389,0.763889 z m 6.111111,0 H 34.375 c -0.420139,0 -0.763889,-0.34375 -0.763889,-0.763889 0,-0.420139 0.34375,-0.763889 0.763889,-0.763889 h 3.055555 c 0.420139,0 0.763889,0.34375 0.763889,0.763889 0,0.420139 -0.34375,0.763889 -0.763889,0.763889 z m 6.111112,0 H 40.48611 c -0.420138,0 -0.763888,-0.34375 -0.763888,-0.763889 0,-0.420139 0.34375,-0.763889 0.763888,-0.763889 h 3.055557 c 0.420138,0 0.763888,0.34375 0.763888,0.763889 0,0.420139 -0.34375,0.763889 -0.763888,0.763889 z m 5.347221,0 h -2.291666 c -0.420139,0 -0.763889,-0.34375 -0.763889,-0.763889 0,-0.420139 0.34375,-0.763889 0.763889,-0.763889 h 2.291666 z"
     id="path18"
     inkscape:connector-curvature="0"
     style="fill:#ccd6dd;stroke-width:1.00000012" />
</svg>
