<?xml version="1.0" encoding="UTF-8" standalone="no"?>
<svg
   xmlns:dc="http://purl.org/dc/elements/1.1/"
   xmlns:cc="http://creativecommons.org/ns#"
   xmlns:rdf="http://www.w3.org/1999/02/22-rdf-syntax-ns#"
   xmlns:svg="http://www.w3.org/2000/svg"
   xmlns="http://www.w3.org/2000/svg"
   xmlns:sodipodi="http://sodipodi.sourceforge.net/DTD/sodipodi-0.dtd"
   xmlns:inkscape="http://www.inkscape.org/namespaces/inkscape"
   viewBox="0 0 69.599999 99.999999"
   version="1.1"
   id="svg4676"
   sodipodi:docname="rocket.svg"
   inkscape:version="0.92.4 (5da689c313, 2019-01-14)"
   width="69.599998"
   height="100">
  <metadata
     id="metadata4682">
    <rdf:RDF>
      <cc:Work
         rdf:about="">
        <dc:format>image/svg+xml</dc:format>
        <dc:type
           rdf:resource="http://purl.org/dc/dcmitype/StillImage" />
        <dc:title></dc:title>
      </cc:Work>
    </rdf:RDF>
  </metadata>
  <defs
     id="defs4680" />
  <sodipodi:namedview
     pagecolor="#ffffff"
     bordercolor="#666666"
     borderopacity="1"
     objecttolerance="10"
     gridtolerance="10"
     guidetolerance="10"
     inkscape:pageopacity="0"
     inkscape:pageshadow="2"
     inkscape:window-width="1366"
     inkscape:window-height="740"
     id="namedview4678"
     showgrid="false"
     inkscape:zoom="6.5555556"
     inkscape:cx="42.355995"
     inkscape:cy="66.765438"
     inkscape:window-x="0"
     inkscape:window-y="0"
     inkscape:window-maximized="1"
     inkscape:current-layer="svg4676"
     fit-margin-top="0"
     fit-margin-left="-0.4"
     fit-margin-right="0"
     fit-margin-bottom="0" />
  <path
     style="fill:#ffffff;fill-opacity:1;stroke-width:2.91447449"
     inkscape:connector-curvature="0"
     id="path5477"
     d="m 34.44845,104.21436 c 0,0 -19.331758,-13.986448 -19.331758,-24.625515 0,-10.639064 19.84792,-24.396596 19.84792,-24.396596 0,0 18.842129,13.759289 18.842129,24.324401 0,10.565109 -19.358291,24.69771 -19.358291,24.69771 z" />
  <path
     style="fill:#f9f9f9;fill-opacity:1;stroke-width:2.83636117"
     inkscape:connector-curvature="0"
     id="path5439"
     d="M -5.1460048,80.081346 -2.9520589,52.57972 34.345016,25.078084 71.642094,52.57972 73.836033,80.081346 c 0,0 -13.159286,-11.000648 -39.491017,-11.000648 -26.3317322,0 -39.4910208,11.000648 -39.4910208,11.000648 z" />
  <path
     style="fill:#fdfdfd;fill-opacity:1;stroke-width:2.70216513"
     inkscape:connector-curvature="0"
     id="path5437"
     d="m 34.598703,-4.7460048 c 0,0 -22.903907,15.9398508 -27.4846846,51.0075288 -2.2903917,17.533833 18.3231176,31.879703 27.4846846,31.879703 9.161551,0 29.77506,-14.34587 27.484665,-31.879703 C 57.502594,11.193846 34.598703,-4.7460048 34.598703,-4.7460048 Z" />
  <path
     d="M -0.4,74.256704 1.5444448,52.836094 34.600003,31.415476 67.655562,52.836094 69.6,74.256704 c 0,0 -11.662778,-8.568242 -34.999997,-8.568242 C 11.262781,65.688462 -0.4,74.256704 -0.4,74.256704 Z"
     id="path4664"
     inkscape:connector-curvature="0"
     style="fill:#a0041e;stroke-width:2.35658526" />
  <path
     d="m 34.547499,100 c 0,0 -15.584726,-11.342927 -15.584726,-19.971153 0,-8.628224 16.000841,-19.785508 16.000841,-19.785508 0,0 15.19,11.158709 15.19,19.726958 C 50.153614,88.538544 34.547499,100 34.547499,100 Z"
     id="path4666"
     inkscape:connector-curvature="0"
     style="fill:#ffac33;stroke-width:2.35658526" />
  <circle
     cx="-43.674389"
     cy="86.600723"
     id="circle4668"
     transform="matrix(0.80598673,-0.5919336,0.80598673,0.5919336,0,0)"
     style="fill:#ffcc4d;stroke-width:2.41250229"
     r="9.6500092" />
  <path
     d="m 34.598063,0 c 0,0 -19.444452,14.280409 -23.33334,45.697313 -1.944446,15.708447 15.555556,28.560819 23.33334,28.560819 7.777771,0 25.277772,-12.852372 23.333323,-28.560819 C 54.042502,14.280409 34.598063,0 34.598063,0 Z"
     id="path4670"
     inkscape:connector-curvature="0"
     style="fill:#565656;stroke-width:2.35658526;fill-opacity:1" />
  <path
     style="fill:#b4b1b1;fill-opacity:1;stroke-width:2.21870065"
     inkscape:connector-curvature="0"
     id="path5691"
     d="m 34.640655,2.1355931 c 0,0 -18.090328,13.6057029 -21.708391,43.5382529 -1.809034,14.966269 14.472258,27.211405 21.708391,27.211405 7.236122,0 23.517412,-12.245136 21.708376,-27.211405 C 52.730972,15.741296 34.640655,2.1355931 34.640655,2.1355931 Z" />
  <path
     d="m 34.600003,79.968873 c 0,0 -7.777778,-5.712169 -7.777778,-8.56825 0,-2.85608 3.892778,-34.27298 7.777778,-34.27298 3.884998,0 7.775831,31.418328 7.775831,34.274405 0,2.856084 -7.775831,8.566825 -7.775831,8.566825 z"
     id="path4674"
     inkscape:connector-curvature="0"
     style="fill:#a0041e;stroke-width:2.35658526" />
  <ellipse
     style="fill:#000000;fill-opacity:1;stroke:#422300;stroke-width:0;stroke-miterlimit:4;stroke-dasharray:none;stroke-opacity:1"
     id="path5673"
     cx="34.474575"
     cy="24.949152"
     rx="10.525424"
     ry="9.4576273" />
</svg>
