<?xml version="1.0" encoding="UTF-8" standalone="no"?>
<svg
   xmlns:dc="http://purl.org/dc/elements/1.1/"
   xmlns:cc="http://creativecommons.org/ns#"
   xmlns:rdf="http://www.w3.org/1999/02/22-rdf-syntax-ns#"
   xmlns:svg="http://www.w3.org/2000/svg"
   xmlns="http://www.w3.org/2000/svg"
   xmlns:sodipodi="http://sodipodi.sourceforge.net/DTD/sodipodi-0.dtd"
   xmlns:inkscape="http://www.inkscape.org/namespaces/inkscape"
   viewBox="0 0 81.937973 108.96034"
   version="1.1"
   id="svg4676"
   sodipodi:docname="rocket.svg"
   inkscape:version="0.92.4 (5da689c313, 2019-01-14)"
   width="81.937973"
   height="108.96036">
  <metadata
     id="metadata4682">
    <rdf:RDF>
      <cc:Work
         rdf:about="">
        <dc:format>image/svg+xml</dc:format>
        <dc:type
           rdf:resource="http://purl.org/dc/dcmitype/StillImage" />
        <dc:title></dc:title>
      </cc:Work>
    </rdf:RDF>
  </metadata>
  <defs
     id="defs4680">
    <inkscape:perspective
       sodipodi:type="inkscape:persp3d"
       inkscape:vp_x="0 : 54.480178 : 1"
       inkscape:vp_y="0 : 999.99996 : 0"
       inkscape:vp_z="78.582039 : 54.480178 : 1"
       inkscape:persp3d-origin="39.291019 : 36.320118 : 1"
       id="perspective896" />
  </defs>
  <sodipodi:namedview
     pagecolor="#ffffff"
     bordercolor="#666666"
     borderopacity="1"
     objecttolerance="10"
     gridtolerance="10"
     guidetolerance="10"
     inkscape:pageopacity="0"
     inkscape:pageshadow="2"
     inkscape:window-width="1366"
     inkscape:window-height="740"
     id="namedview4678"
     showgrid="true"
     inkscape:zoom="6.5555556"
     inkscape:cx="-6.6004858"
     inkscape:cy="38.012387"
     inkscape:window-x="0"
     inkscape:window-y="0"
     inkscape:window-maximized="1"
     inkscape:current-layer="svg4676"
     fit-margin-top="0"
     fit-margin-left="-0.4"
     fit-margin-right="0"
     fit-margin-bottom="0"
     showguides="true"
     inkscape:object-paths="false"
     inkscape:snap-smooth-nodes="true"
     inkscape:snap-intersection-paths="false"
     inkscape:snap-midpoints="true"
     inkscape:object-nodes="false"
     inkscape:snap-nodes="false">
    <inkscape:grid
       type="xygrid"
       id="grid1379"
       originx="1.5254238"
       originy="-1.0590817e-05" />
  </sodipodi:namedview>
  <path
     style="fill:#ffffff;fill-opacity:1;stroke-width:2.91447449"
     inkscape:connector-curvature="0"
     id="path5477"
     d="m 40.719879,108.96036 c 0,0 -19.331758,-13.986443 -19.331758,-24.62551 0,-10.639064 19.84792,-24.396596 19.84792,-24.396596 0,0 18.842129,13.759289 18.842129,24.324401 0,10.565109 -19.358291,24.697705 -19.358291,24.697705 z" />
  <path
     style="fill:#ffffff;fill-opacity:1;stroke-width:2.83636141"
     inkscape:connector-curvature="0"
     id="path5439"
     d="M -0.4,88.793454 1.8871664,56.563015 40.76899,24.332565 l 38.881826,32.23045 2.287159,32.230439 c 0,0 -13.718422,-12.892172 -41.168985,-12.892172 C 13.318426,75.901282 -0.4,88.793454 -0.4,88.793454 Z" />
  <path
     style="fill:#fdfdfd;fill-opacity:1;stroke-width:2.70216513"
     inkscape:connector-curvature="0"
     id="path5437"
     d="m 40.870132,0 c 0,0 -22.903907,15.939851 -27.484685,51.007529 -2.290392,17.533833 18.323118,31.879703 27.484685,31.879703 9.161551,0 29.77506,-14.34587 27.484665,-31.879703 C 63.774023,15.939851 40.870132,0 40.870132,0 Z" />
  <path
     style="opacity:1;fill:#6f0700;fill-opacity:1;stroke:none;stroke-width:2.35658526;stroke-opacity:1"
     inkscape:connector-curvature="0"
     id="path5085"
     d="M 3.1748351,83.101535 5.2750832,56.341671 40.979297,29.581795 l 35.704214,26.759876 2.10024,26.759864 c 0,0 -12.597286,-10.703943 -37.804454,-10.703943 -25.207172,0 -37.8044619,10.703943 -37.8044619,10.703943 z" />
  <path
     d="m 5.8714286,79.002709 1.9444448,-21.42061 33.0555586,-21.420618 33.055559,21.420618 1.944438,21.42061 c 0,0 -11.662778,-8.568242 -34.999997,-8.568242 -23.337222,0 -35.0000034,8.568242 -35.0000034,8.568242 z"
     id="path4664"
     inkscape:connector-curvature="0"
     style="opacity:1;fill:#a0041e;fill-opacity:1;stroke:none;stroke-width:2.35658526;stroke-opacity:1" />
  <path
     d="m 40.818928,104.746 c 0,0 -15.584726,-11.342922 -15.584726,-19.971148 0,-8.628224 16.000841,-19.785508 16.000841,-19.785508 0,0 15.19,11.158709 15.19,19.726958 0,8.568247 -15.606115,20.029698 -15.606115,20.029698 z"
     id="path4666"
     inkscape:connector-curvature="0"
     style="fill:#ffac33;stroke-width:2.35658526" />
  <circle
     cx="-33.752701"
     cy="89.579842"
     id="circle4668"
     transform="matrix(0.73207197,-0.6812273,0.73207197,0.6812273,0,0)"
     style="fill:#ffcc4d;stroke-width:2.6560843"
     r="10.624337" />
  <circle
     r="6.7198176"
     style="fill:#ff872f;fill-opacity:1;stroke-width:2.6560843"
     transform="matrix(0.73207197,-0.6812273,0.73207197,0.6812273,0,0)"
     id="circle5109"
     cy="89.461685"
     cx="-33.947102" />
  <path
     d="m 40.869492,4.7460048 c 0,0 -19.444452,14.2804092 -23.33334,45.6973132 -1.944446,15.708447 15.555556,28.560819 23.33334,28.560819 7.777771,0 25.277772,-12.852372 23.333323,-28.560819 C 60.313931,19.026414 40.869492,4.7460048 40.869492,4.7460048 Z"
     id="path4670"
     inkscape:connector-curvature="0"
     style="fill:#565656;fill-opacity:1;stroke-width:2.35658526" />
  <path
     style="fill:#b4b1b1;fill-opacity:1;stroke-width:2.21870065"
     inkscape:connector-curvature="0"
     id="path5691"
     d="m 40.912084,6.8815979 c 0,0 -18.090328,13.6057031 -21.708391,43.5382531 -1.809034,14.966269 14.472258,27.211405 21.708391,27.211405 7.236122,0 23.517412,-12.245136 21.708376,-27.211405 C 59.002401,20.487301 40.912084,6.8815979 40.912084,6.8815979 Z" />
  <ellipse
     style="fill:#000000;fill-opacity:1;stroke:#422300;stroke-width:0;stroke-miterlimit:4;stroke-dasharray:none;stroke-opacity:1"
     id="path5673"
     cx="40.746006"
     cy="29.695156"
     rx="10.525424"
     ry="9.4576273" />
  <ellipse
     ry="9.4576273"
     rx="10.525424"
     cy="29.695156"
     cx="40.746006"
     id="ellipse932"
     style="fill:#000000;fill-opacity:1;stroke:#422300;stroke-width:0;stroke-miterlimit:4;stroke-dasharray:none;stroke-opacity:1" />
  <path
     style="fill:#cccccc;fill-opacity:1;stroke:#422300;stroke-width:0;stroke-miterlimit:4;stroke-dasharray:none;stroke-opacity:1"
     d="M 41.339844 22.501953 A 7.0198526 5.8981237 0 0 0 35.912109 24.666016 A 7.5591712 6.7071013 0 0 1 39.830078 23.689453 A 7.5591712 6.7071013 0 0 1 47.388672 30.396484 A 7.5591712 6.7071013 0 0 1 47.269531 31.542969 A 7.0198526 5.8981237 0 0 0 48.359375 28.400391 A 7.0198526 5.8981237 0 0 0 41.339844 22.501953 z "
     id="ellipse5095" />
  <path
     d="m 40.871432,84.714878 c 0,0 -7.777778,-5.712169 -7.777778,-8.56825 0,-2.85608 3.892778,-34.27298 7.777778,-34.27298 3.884998,0 7.775831,31.418328 7.775831,34.274405 0,2.856084 -7.775831,8.566825 -7.775831,8.566825 z"
     id="path4674"
     inkscape:connector-curvature="0"
     style="fill:#a0041e;stroke-width:2.35658526" />
  <ellipse
     style="fill:#650800;fill-opacity:1;stroke:#422300;stroke-width:0;stroke-miterlimit:4;stroke-dasharray:none;stroke-opacity:1"
     id="ellipse5100"
     cx="57.250099"
     cy="114.39628"
     rx="3.0314059"
     ry="10.906361"
     transform="matrix(0.62285816,-0.78233478,0.04624653,0.99893006,0,0)"
     inkscape:transform-center-x="-0.0984036"
     inkscape:transform-center-y="0.64794564" />
</svg>
